<?xml version="1.0" encoding="iso-8859-1"?>
<!-- Generator: Adobe Illustrator 19.0.0, SVG Export Plug-In . SVG Version: 6.00 Build 0)  -->
<svg version="1.1" id="Layer_1" xmlns="http://www.w3.org/2000/svg" xmlns:xlink="http://www.w3.org/1999/xlink" x="0px" y="0px"
	 viewBox="0 0 503.467 503.467" style="enable-background:new 0 0 503.467 503.467;" xml:space="preserve">
<g>
	<g>
		<g>
			<path fill="#018847" d="M76.8,51.2c-4.719,0-8.533,3.823-8.533,8.533V153.6c0,11.11-7.159,20.489-17.067,24.03V59.733
				c0-4.71-3.814-8.533-8.533-8.533s-8.533,3.823-8.533,8.533v117.888c-9.907-3.533-17.067-12.911-17.067-24.021V59.733
				c0-4.71-3.814-8.533-8.533-8.533S0,55.023,0,59.733V153.6c0,20.599,14.686,37.837,34.133,41.805v44.74
				c-14.677,3.814-25.6,17.058-25.6,32.922v153.6c0,18.816,15.309,34.133,34.133,34.133S76.8,445.483,76.8,426.667v-153.6
				c0-15.863-10.923-29.107-25.6-32.922v-44.74c19.447-3.968,34.133-21.205,34.133-41.805V59.733
				C85.333,55.023,81.519,51.2,76.8,51.2z M42.667,315.733c-4.71,0-8.533-3.823-8.533-8.533s3.823-8.533,8.533-8.533
				c4.71,0,8.533,3.823,8.533,8.533S47.377,315.733,42.667,315.733z"/>
			<path fill="#018847" d="M486.4,243.678V51.2c0-3.448-2.074-6.562-5.265-7.885c-3.183-1.314-6.861-0.597-9.301,1.852
				c-23.629,23.62-36.634,55.031-36.634,88.439v52.215c0,19.32,4.565,38.656,13.201,55.927l1.613,3.226
				c-8.934,6.161-14.814,16.444-14.814,28.092v153.6c0,18.816,15.309,34.133,34.133,34.133s34.133-15.317,34.133-34.133v-153.6
				C503.467,260.488,496.555,249.6,486.4,243.678z M452.267,133.606c0-21.009,5.956-41.096,17.067-58.342v163.669h-3.26
				l-2.406-4.813c-7.458-14.916-11.401-31.616-11.401-48.299V133.606z M469.333,315.733c-4.71,0-8.533-3.823-8.533-8.533
				s3.823-8.533,8.533-8.533s8.533,3.823,8.533,8.533S474.044,315.733,469.333,315.733z"/>
			<path fill="#018847" d="M256,187.731c-46.259,0-85.333,39.083-85.333,85.333s39.074,85.333,85.333,85.333s85.333-39.083,85.333-85.333
				S302.259,187.731,256,187.731z"/>
			<path fill="#018847" d="M256,110.752c-89.404,0-162.133,72.738-162.133,162.133c0,89.404,72.73,162.133,162.133,162.133
				s162.133-72.73,162.133-162.133C418.133,183.49,345.404,110.752,256,110.752z M256,375.465c-56.465,0-102.4-45.935-102.4-102.4
				c0-56.465,45.935-102.4,102.4-102.4c56.465,0,102.4,45.935,102.4,102.4C358.4,329.53,312.465,375.465,256,375.465z"/>
		</g>
	</g>
</g>
<g>
</g>
<g>
</g>
<g>
</g>
<g>
</g>
<g>
</g>
<g>
</g>
<g>
</g>
<g>
</g>
<g>
</g>
<g>
</g>
<g>
</g>
<g>
</g>
<g>
</g>
<g>
</g>
<g>
</g>
</svg>
